<svg width="80" height="80" viewBox="0 0 80 80" fill="none" xmlns="http://www.w3.org/2000/svg">
<rect width="80" height="80" rx="40" fill="#ECF0C1"/>
<path d="M46.75 37C46.75 35.2319 46.0388 33.5362 44.773 32.286C43.5071 31.0357 41.7902 30.3333 40 30.3333C38.2098 30.3333 36.4929 31.0357 35.227 32.286C33.9612 33.5362 33.25 35.2319 33.25 37M46.75 37C46.75 42.5228 51.2831 47 56.875 47C62.4669 47 67 42.5228 67 37C67 31.4772 62.4669 27 56.875 27C51.2831 27 46.75 31.4772 46.75 37ZM33.25 37C33.25 42.5228 28.7169 47 23.125 47C17.5331 47 13 42.5228 13 37C13 31.4772 17.5331 27 23.125 27C28.7169 27 33.25 31.4772 33.25 37Z" stroke="black" stroke-width="3.33333" stroke-linecap="round" stroke-linejoin="round"/>
<path d="M34 54C34 54.7956 34.5795 55.5587 35.6109 56.1213C36.6424 56.6839 38.0413 57 39.5 57C40.9587 57 42.3576 56.6839 43.3891 56.1213C44.4205 55.5587 45 54.7956 45 54" stroke="black" stroke-width="3.33333" stroke-linecap="round" stroke-linejoin="round"/>
</svg>
